<?xml version="1.0" encoding="UTF-8"?>
<svg xmlns="http://www.w3.org/2000/svg" version="1.2" baseProfile="tiny-ps" viewBox="0 0 525 525">
<title>Tyler Morgan</title>
<desc>The logo for Tyler Morgan. Showcasing the capital letters T and M.</desc>
   <g id="Bkg">
      <rect fill="#222222" width="525" height="525"/>
   </g>
   <g id="Logo">
      <path id="Morgan" fill="#d9d9d9" transform="translate(142.5, 374)" d="M254.6 -219.5 L254.6 -216.7 C254.1 -216.7 253.5 -216.4 252.7 -215.8 C251.9 -215.2 251 -214 250.2 -212.3 C249.4 -210.7 248.7 -208.3 248.2 -205.2 C247.6 -202 247.4 -197.9 247.4 -192.6 L247.4 -26.9 C247.4 -21.9 247.6 -17.8 248.2 -14.5 C248.7 -11.3 249.4 -8.9 250.2 -7.2 C251 -5.5 251.9 -4.4 252.7 -3.8 C253.5 -3.1 254.1 -2.8 254.6 -2.8 L254.6 0 L217.7 0 L217.7 -2.8 C218.1 -2.8 218.7 -3.1 219.5 -3.8 C220.4 -4.4 221.2 -5.5 221.9 -7.2 C222.6 -8.9 223.3 -11.3 223.9 -14.5 C224.5 -17.8 224.9 -21.9 224.9 -26.9 L224.9 -213 L131 -18.5 L139.8 0 L115.1 0 L24.1 -189.2 L24.1 -51.3 C24.1 -44 24.5 -37.4 25.3 -31.4 C26.2 -25.5 27.2 -20.4 28.3 -16.1 C29.4 -11.8 30.7 -8.5 32 -6.3 C33.4 -4 34.7 -2.8 36 -2.8 L36 0 L9.4 0 L9.4 -2.8 C10.6 -2.8 11.9 -4 13.3 -6.3 C14.6 -8.5 15.9 -11.8 17 -16.1 C18.2 -20.4 19.2 -25.5 20 -31.4 C20.8 -37.4 21.3 -44 21.3 -51.3 L21.3 -194.8 L9.4 -219.5 L34.1 -219.5 L129.5 -21.6 L224.9 -219.5 Z M254.6 -219.5"/>
      <path id="Tyler" fill="#a6a6a6" transform="translate(63.7, 377)" d="M190.7 -196 L187.8 -196 C183.1 -201.1 178.6 -205.3 174.1 -208.4 C169.7 -211.6 164.6 -214.1 158.9 -215.8 C153.2 -217.4 146.5 -218.6 138.9 -219.3 C131.2 -219.9 122 -220.2 111.2 -220.2 L111.2 -27.3 C111.2 -22.2 111.5 -18.1 112 -14.8 C112.5 -11.5 113.2 -9 114.1 -7.3 C114.9 -5.6 115.8 -4.4 116.6 -3.8 C117.5 -3.2 118.1 -2.9 118.5 -2.9 L118.5 0 L81.3 0 L81.3 -2.9 C81.8 -2.9 82.4 -3.2 83.3 -3.8 C84.1 -4.4 84.9 -5.6 85.6 -7.3 C86.4 -9 87 -11.5 87.7 -14.8 C88.3 -18.1 88.7 -22.2 88.7 -27.3 L88.7 -220.2 C77.9 -220.2 68.6 -219.9 61 -219.3 C53.4 -218.6 46.8 -217.4 41.1 -215.8 C35.5 -214.1 30.5 -211.6 26 -208.4 C21.6 -205.3 17 -201.1 12.4 -196 L9.5 -196 L9.5 -223.1 L190.7 -223.1 M190.7 -196"/>
   </g>
</svg>
